<svg width="360" height="429" viewBox="0 0 360 429" fill="none" xmlns="http://www.w3.org/2000/svg">
<mask id="path-1-inside-1_171_457" fill="white">
<path d="M0 0H360V429H0V0Z"/>
</mask>
<path d="M0 0H360V429H0V0Z" fill="white"/>
<path d="M1 429V0H-1V429H1Z" fill="#121212" mask="url(#path-1-inside-1_171_457)"/>
<path d="M48.484 58.273C46.244 58.273 44.403 57.538 42.961 56.068C41.519 54.612 40.798 52.806 40.798 50.65C40.798 48.494 41.519 46.688 42.961 45.232C44.403 43.762 46.244 43.027 48.484 43.027C49.814 43.027 51.046 43.349 52.18 43.993C53.314 44.637 54.196 45.505 54.826 46.597L53.125 47.584C52.705 46.772 52.075 46.128 51.235 45.652C50.409 45.162 49.492 44.917 48.484 44.917C46.776 44.917 45.39 45.463 44.326 46.555C43.262 47.633 42.73 48.998 42.73 50.65C42.73 52.288 43.262 53.646 44.326 54.724C45.39 55.816 46.776 56.362 48.484 56.362C49.492 56.362 50.409 56.124 51.235 55.648C52.075 55.158 52.705 54.514 53.125 53.716L54.826 54.682C54.21 55.774 53.335 56.649 52.201 57.307C51.081 57.951 49.842 58.273 48.484 58.273ZM65.6699 56.677C64.6059 57.741 63.2969 58.273 61.7429 58.273C60.1889 58.273 58.8799 57.741 57.8159 56.677C56.7519 55.613 56.2199 54.304 56.2199 52.75C56.2199 51.196 56.7519 49.887 57.8159 48.823C58.8799 47.759 60.1889 47.227 61.7429 47.227C63.2969 47.227 64.6059 47.759 65.6699 48.823C66.7479 49.901 67.2869 51.21 67.2869 52.75C67.2869 54.29 66.7479 55.599 65.6699 56.677ZM61.7429 56.488C62.7929 56.488 63.6749 56.131 64.3889 55.417C65.1029 54.703 65.4599 53.814 65.4599 52.75C65.4599 51.686 65.1029 50.797 64.3889 50.083C63.6749 49.369 62.7929 49.012 61.7429 49.012C60.7069 49.012 59.8319 49.369 59.1179 50.083C58.4039 50.797 58.0469 51.686 58.0469 52.75C58.0469 53.814 58.4039 54.703 59.1179 55.417C59.8319 56.131 60.7069 56.488 61.7429 56.488ZM74.6697 47.227C75.9017 47.227 76.8887 47.619 77.6307 48.403C78.3727 49.173 78.7437 50.223 78.7437 51.553V58H76.9167V51.658C76.9167 50.818 76.6857 50.16 76.2237 49.684C75.7617 49.208 75.1247 48.97 74.3127 48.97C73.3747 48.97 72.6327 49.264 72.0867 49.852C71.5407 50.426 71.2677 51.287 71.2677 52.435V58H69.4407V47.5H71.2677V49.012C71.9957 47.822 73.1297 47.227 74.6697 47.227ZM87.0062 47.5V49.264H84.2132V54.955C84.2132 55.473 84.3112 55.844 84.5072 56.068C84.7172 56.278 85.0322 56.39 85.4522 56.404C85.8722 56.404 86.3902 56.39 87.0062 56.362V58C85.3962 58.21 84.2202 58.077 83.4782 57.601C82.7502 57.125 82.3862 56.243 82.3862 54.955V49.264H80.3072V47.5H82.3862V45.106L84.2132 44.56V47.5H87.0062ZM97.33 49.306V47.5H99.157V58H97.33V56.194C96.434 57.58 95.111 58.273 93.361 58.273C91.877 58.273 90.624 57.741 89.602 56.677C88.566 55.599 88.048 54.29 88.048 52.75C88.048 51.224 88.566 49.922 89.602 48.844C90.638 47.766 91.891 47.227 93.361 47.227C95.111 47.227 96.434 47.92 97.33 49.306ZM93.592 56.509C94.656 56.509 95.545 56.152 96.259 55.438C96.973 54.696 97.33 53.8 97.33 52.75C97.33 51.686 96.973 50.797 96.259 50.083C95.545 49.355 94.656 48.991 93.592 48.991C92.542 48.991 91.66 49.355 90.946 50.083C90.232 50.797 89.875 51.686 89.875 52.75C89.875 53.8 90.232 54.696 90.946 55.438C91.66 56.152 92.542 56.509 93.592 56.509ZM106.86 58.273C105.278 58.273 103.962 57.748 102.912 56.698C101.862 55.634 101.337 54.318 101.337 52.75C101.337 51.182 101.862 49.873 102.912 48.823C103.962 47.759 105.278 47.227 106.86 47.227C107.896 47.227 108.827 47.479 109.653 47.983C110.479 48.473 111.095 49.138 111.501 49.978L109.968 50.86C109.702 50.3 109.289 49.852 108.729 49.516C108.183 49.18 107.56 49.012 106.86 49.012C105.81 49.012 104.928 49.369 104.214 50.083C103.514 50.811 103.164 51.7 103.164 52.75C103.164 53.786 103.514 54.668 104.214 55.396C104.928 56.11 105.81 56.467 106.86 56.467C107.56 56.467 108.19 56.306 108.75 55.984C109.31 55.648 109.737 55.2 110.031 54.64L111.585 55.543C111.123 56.383 110.472 57.048 109.632 57.538C108.792 58.028 107.868 58.273 106.86 58.273ZM119.101 47.5V49.264H116.308V54.955C116.308 55.473 116.406 55.844 116.602 56.068C116.812 56.278 117.127 56.39 117.547 56.404C117.967 56.404 118.485 56.39 119.101 56.362V58C117.491 58.21 116.315 58.077 115.573 57.601C114.845 57.125 114.481 56.243 114.481 54.955V49.264H112.402V47.5H114.481V45.106L116.308 44.56V47.5H119.101ZM126.575 53.065V43.3H128.528V52.981C128.528 54.031 128.836 54.857 129.452 55.459C130.082 56.061 130.964 56.362 132.098 56.362C133.232 56.362 134.107 56.061 134.723 55.459C135.353 54.857 135.668 54.031 135.668 52.981V43.3H137.6V53.065C137.6 54.661 137.089 55.928 136.067 56.866C135.045 57.804 133.722 58.273 132.098 58.273C130.46 58.273 129.13 57.804 128.108 56.866C127.086 55.928 126.575 54.661 126.575 53.065ZM141.87 50.335C141.87 51.007 142.563 51.532 143.949 51.91C144.467 52.022 144.901 52.141 145.251 52.267C145.615 52.379 146.007 52.554 146.427 52.792C146.861 53.03 147.19 53.345 147.414 53.737C147.638 54.129 147.75 54.591 147.75 55.123C147.75 56.075 147.379 56.838 146.637 57.412C145.895 57.986 144.957 58.273 143.823 58.273C142.815 58.273 141.94 58.056 141.198 57.622C140.47 57.174 139.952 56.572 139.644 55.816L141.219 54.913C141.387 55.417 141.702 55.816 142.164 56.11C142.626 56.404 143.179 56.551 143.823 56.551C144.453 56.551 144.957 56.432 145.335 56.194C145.713 55.956 145.902 55.599 145.902 55.123C145.902 54.409 145.209 53.891 143.823 53.569C143.361 53.443 143.011 53.345 142.773 53.275C142.535 53.205 142.206 53.079 141.786 52.897C141.38 52.715 141.072 52.526 140.862 52.33C140.652 52.12 140.456 51.847 140.274 51.511C140.106 51.161 140.022 50.776 140.022 50.356C140.022 49.446 140.372 48.697 141.072 48.109C141.786 47.521 142.675 47.227 143.739 47.227C144.593 47.227 145.349 47.423 146.007 47.815C146.679 48.193 147.183 48.725 147.519 49.411L145.986 50.272C145.608 49.376 144.859 48.928 143.739 48.928C143.207 48.928 142.759 49.054 142.395 49.306C142.045 49.558 141.87 49.901 141.87 50.335Z" fill="#808080"/>
<path d="M48.68 101H47.644L46.734 98.592H42.086L41.176 101H40.14L43.906 91.2H44.914L48.68 101ZM44.41 92.418L42.436 97.668H46.384L44.41 92.418ZM55.6816 95.372V91.2H56.6056V101H55.6816V99.628C55.0376 100.655 54.095 101.168 52.8536 101.168C51.855 101.168 51.001 100.813 50.2916 100.104C49.5916 99.3947 49.2416 98.5267 49.2416 97.5C49.2416 96.4733 49.5916 95.6053 50.2916 94.896C51.001 94.1867 51.855 93.832 52.8536 93.832C54.095 93.832 55.0376 94.3453 55.6816 95.372ZM50.9636 99.474C51.4956 100.006 52.149 100.272 52.9236 100.272C53.6983 100.272 54.3516 100.006 54.8836 99.474C55.4156 98.9233 55.6816 98.2653 55.6816 97.5C55.6816 96.7253 55.4156 96.072 54.8836 95.54C54.3516 94.9987 53.6983 94.728 52.9236 94.728C52.149 94.728 51.4956 94.9987 50.9636 95.54C50.4316 96.072 50.1656 96.7253 50.1656 97.5C50.1656 98.2653 50.4316 98.9233 50.9636 99.474ZM64.582 95.372V91.2H65.506V101H64.582V99.628C63.938 100.655 62.9954 101.168 61.754 101.168C60.7554 101.168 59.9014 100.813 59.192 100.104C58.492 99.3947 58.142 98.5267 58.142 97.5C58.142 96.4733 58.492 95.6053 59.192 94.896C59.9014 94.1867 60.7554 93.832 61.754 93.832C62.9954 93.832 63.938 94.3453 64.582 95.372ZM59.864 99.474C60.396 100.006 61.0494 100.272 61.824 100.272C62.5987 100.272 63.252 100.006 63.784 99.474C64.316 98.9233 64.582 98.2653 64.582 97.5C64.582 96.7253 64.316 96.072 63.784 95.54C63.252 94.9987 62.5987 94.728 61.824 94.728C61.0494 94.728 60.396 94.9987 59.864 95.54C59.332 96.072 59.066 96.7253 59.066 97.5C59.066 98.2653 59.332 98.9233 59.864 99.474ZM68.3864 94V95.162C68.8158 94.3127 69.5531 93.888 70.5984 93.888V94.784C69.9264 94.784 69.3898 94.98 68.9884 95.372C68.5871 95.7547 68.3864 96.3333 68.3864 97.108V101H67.4624V94H68.3864ZM74.6749 93.832C75.7203 93.832 76.5556 94.2007 77.1809 94.938C77.8249 95.666 78.1469 96.5293 78.1469 97.528C78.1469 97.5747 78.1376 97.7193 78.1189 97.962H71.9729C72.0663 98.662 72.3649 99.222 72.8689 99.642C73.3729 100.062 74.0029 100.272 74.7589 100.272C75.8229 100.272 76.5743 99.8753 77.0129 99.082L77.8249 99.558C77.5169 100.062 77.0923 100.459 76.5509 100.748C76.0189 101.028 75.4169 101.168 74.7449 101.168C73.6436 101.168 72.7476 100.823 72.0569 100.132C71.3663 99.4413 71.0209 98.564 71.0209 97.5C71.0209 96.4453 71.3616 95.5727 72.0429 94.882C72.7243 94.182 73.6016 93.832 74.6749 93.832ZM74.6749 94.728C73.9469 94.728 73.3356 94.9427 72.8409 95.372C72.3556 95.8013 72.0663 96.366 71.9729 97.066H77.1949C77.0923 96.3193 76.8076 95.7453 76.3409 95.344C75.8556 94.9333 75.3003 94.728 74.6749 94.728ZM80.0713 95.834C80.0713 96.3753 80.5519 96.772 81.5133 97.024C81.7839 97.0893 81.9613 97.136 82.0453 97.164C82.1293 97.1827 82.2926 97.234 82.5353 97.318C82.7873 97.3927 82.9599 97.458 83.0533 97.514C83.1559 97.57 83.2959 97.6587 83.4733 97.78C83.6506 97.892 83.7766 98.0087 83.8513 98.13C83.9259 98.242 83.9959 98.3913 84.0613 98.578C84.1266 98.7553 84.1593 98.9467 84.1593 99.152C84.1593 99.7493 83.9213 100.235 83.4453 100.608C82.9879 100.981 82.3813 101.168 81.6253 101.168C80.9719 101.168 80.4073 101.023 79.9313 100.734C79.4553 100.435 79.1193 100.043 78.9233 99.558L79.7073 99.096C79.8379 99.46 80.0713 99.7493 80.4073 99.964C80.7526 100.169 81.1586 100.272 81.6253 100.272C82.1013 100.272 82.4886 100.179 82.7873 99.992C83.0859 99.8053 83.2353 99.5253 83.2353 99.152C83.2353 98.6107 82.7546 98.214 81.7933 97.962C81.5226 97.8967 81.3453 97.8547 81.2613 97.836C81.1773 97.808 81.0093 97.7567 80.7573 97.682C80.5146 97.598 80.3419 97.528 80.2393 97.472C80.1459 97.416 80.0106 97.332 79.8333 97.22C79.6559 97.0987 79.5299 96.982 79.4553 96.87C79.3806 96.7487 79.3106 96.5993 79.2453 96.422C79.1799 96.2353 79.1473 96.0393 79.1473 95.834C79.1473 95.2647 79.3713 94.7887 79.8193 94.406C80.2859 94.0233 80.8599 93.832 81.5413 93.832C82.1013 93.832 82.5959 93.958 83.0253 94.21C83.4639 94.462 83.7859 94.812 83.9913 95.26L83.2213 95.708C82.9599 95.0547 82.3999 94.728 81.5413 94.728C81.1213 94.728 80.7713 94.826 80.4913 95.022C80.2113 95.218 80.0713 95.4887 80.0713 95.834ZM86.0049 95.834C86.0049 96.3753 86.4855 96.772 87.4469 97.024C87.7175 97.0893 87.8949 97.136 87.9789 97.164C88.0629 97.1827 88.2262 97.234 88.4689 97.318C88.7209 97.3927 88.8935 97.458 88.9869 97.514C89.0895 97.57 89.2295 97.6587 89.4069 97.78C89.5842 97.892 89.7102 98.0087 89.7849 98.13C89.8595 98.242 89.9295 98.3913 89.9949 98.578C90.0602 98.7553 90.0929 98.9467 90.0929 99.152C90.0929 99.7493 89.8549 100.235 89.3789 100.608C88.9215 100.981 88.3149 101.168 87.5589 101.168C86.9055 101.168 86.3409 101.023 85.8649 100.734C85.3889 100.435 85.0529 100.043 84.8569 99.558L85.6409 99.096C85.7715 99.46 86.0049 99.7493 86.3409 99.964C86.6862 100.169 87.0922 100.272 87.5589 100.272C88.0349 100.272 88.4222 100.179 88.7209 99.992C89.0195 99.8053 89.1689 99.5253 89.1689 99.152C89.1689 98.6107 88.6882 98.214 87.7269 97.962C87.4562 97.8967 87.2789 97.8547 87.1949 97.836C87.1109 97.808 86.9429 97.7567 86.6909 97.682C86.4482 97.598 86.2755 97.528 86.1729 97.472C86.0795 97.416 85.9442 97.332 85.7669 97.22C85.5895 97.0987 85.4635 96.982 85.3889 96.87C85.3142 96.7487 85.2442 96.5993 85.1789 96.422C85.1135 96.2353 85.0809 96.0393 85.0809 95.834C85.0809 95.2647 85.3049 94.7887 85.7529 94.406C86.2195 94.0233 86.7935 93.832 87.4749 93.832C88.0349 93.832 88.5295 93.958 88.9589 94.21C89.3975 94.462 89.7195 94.812 89.9249 95.26L89.1549 95.708C88.8935 95.0547 88.3335 94.728 87.4749 94.728C87.0549 94.728 86.7049 94.826 86.4249 95.022C86.1449 95.218 86.0049 95.4887 86.0049 95.834Z" fill="#808080"/>
<path d="M40.224 117.824L43.168 116.8H44.448V128H42.976V118.4L40.592 119.104L40.224 117.824ZM48.7911 121.168H50.4231C51.4791 121.168 52.3698 121.483 53.0951 122.112C53.8311 122.741 54.1991 123.6 54.1991 124.688C54.1991 125.787 53.8258 126.645 53.0791 127.264C52.3218 127.893 51.4151 128.208 50.3591 128.208C49.4845 128.208 48.7111 128 48.0391 127.584C47.3778 127.157 46.9191 126.565 46.6631 125.808L47.9271 125.088C48.0765 125.621 48.3645 126.032 48.7911 126.32C49.2178 126.608 49.7405 126.752 50.3591 126.752C51.0738 126.752 51.6445 126.571 52.0711 126.208C52.5085 125.835 52.7271 125.328 52.7271 124.688C52.7271 124.048 52.5085 123.541 52.0711 123.168C51.6445 122.795 51.0845 122.608 50.3911 122.608H47.2231L47.6391 116.8H53.7671V118.192H48.9831L48.7911 121.168ZM63.0306 115.2L56.6306 129.6H55.7986L62.1986 115.2H63.0306ZM71.6278 124.48H72.9878V125.872H71.6278V128H70.1398V125.872H64.4278V124.48L68.4438 116.8H70.0438L66.0278 124.48H70.1398V121.312H71.6278V124.48ZM82.365 122.24L87.469 128H85.645L80.813 122.624V128H79.325V116.8H80.813V121.856L85.485 116.8H87.309L82.365 122.24ZM93.0338 119.792C93.9724 119.792 94.7244 120.091 95.2898 120.688C95.8551 121.275 96.1378 122.075 96.1378 123.088V128H94.7458V123.168C94.7458 122.528 94.5698 122.027 94.2178 121.664C93.8658 121.301 93.3804 121.12 92.7618 121.12C92.0471 121.12 91.4818 121.344 91.0658 121.792C90.6498 122.229 90.4418 122.885 90.4418 123.76V128H89.0498V116.8H90.4418V121.152C90.9964 120.245 91.8604 119.792 93.0338 119.792ZM99.873 120V121.344C100.332 120.352 101.164 119.856 102.369 119.856V121.312C101.686 121.28 101.1 121.461 100.609 121.856C100.118 122.251 99.873 122.885 99.873 123.76V128H98.481V120H99.873ZM111.374 124.64H104.67C104.808 125.344 105.134 125.899 105.646 126.304C106.158 126.699 106.798 126.896 107.566 126.896C108.622 126.896 109.39 126.507 109.87 125.728L111.054 126.4C110.264 127.605 109.091 128.208 107.534 128.208C106.275 128.208 105.24 127.813 104.43 127.024C103.64 126.213 103.246 125.205 103.246 124C103.246 122.784 103.635 121.781 104.414 120.992C105.192 120.192 106.2 119.792 107.438 119.792C108.611 119.792 109.566 120.208 110.302 121.04C111.048 121.851 111.422 122.843 111.422 124.016C111.422 124.219 111.406 124.427 111.374 124.64ZM107.438 121.104C106.702 121.104 106.083 121.312 105.582 121.728C105.091 122.144 104.787 122.709 104.67 123.424H110.014C109.896 122.688 109.603 122.117 109.134 121.712C108.664 121.307 108.099 121.104 107.438 121.104ZM114.309 122.16C114.309 122.672 114.837 123.072 115.893 123.36C116.288 123.445 116.618 123.536 116.885 123.632C117.162 123.717 117.461 123.851 117.781 124.032C118.112 124.213 118.362 124.453 118.533 124.752C118.704 125.051 118.789 125.403 118.789 125.808C118.789 126.533 118.506 127.115 117.941 127.552C117.376 127.989 116.661 128.208 115.797 128.208C115.029 128.208 114.362 128.043 113.797 127.712C113.242 127.371 112.848 126.912 112.613 126.336L113.813 125.648C113.941 126.032 114.181 126.336 114.533 126.56C114.885 126.784 115.306 126.896 115.797 126.896C116.277 126.896 116.661 126.805 116.949 126.624C117.237 126.443 117.381 126.171 117.381 125.808C117.381 125.264 116.853 124.869 115.797 124.624C115.445 124.528 115.178 124.453 114.997 124.4C114.816 124.347 114.565 124.251 114.245 124.112C113.936 123.973 113.701 123.829 113.541 123.68C113.381 123.52 113.232 123.312 113.093 123.056C112.965 122.789 112.901 122.496 112.901 122.176C112.901 121.483 113.168 120.912 113.701 120.464C114.245 120.016 114.922 119.792 115.733 119.792C116.384 119.792 116.96 119.941 117.461 120.24C117.973 120.528 118.357 120.933 118.613 121.456L117.445 122.112C117.157 121.429 116.586 121.088 115.733 121.088C115.328 121.088 114.986 121.184 114.709 121.376C114.442 121.568 114.309 121.829 114.309 122.16ZM124.743 119.792C125.682 119.792 126.434 120.091 126.999 120.688C127.564 121.275 127.847 122.075 127.847 123.088V128H126.455V123.168C126.455 122.528 126.279 122.027 125.927 121.664C125.575 121.301 125.09 121.12 124.471 121.12C123.756 121.12 123.191 121.344 122.775 121.792C122.359 122.229 122.151 122.885 122.151 123.76V128H120.759V116.8H122.151V121.152C122.706 120.245 123.57 119.792 124.743 119.792ZM133.95 128.208C132.745 128.208 131.742 127.808 130.942 127.008C130.142 126.197 129.742 125.195 129.742 124C129.742 122.805 130.142 121.808 130.942 121.008C131.742 120.197 132.745 119.792 133.95 119.792C134.74 119.792 135.449 119.984 136.078 120.368C136.708 120.741 137.177 121.248 137.486 121.888L136.318 122.56C136.116 122.133 135.801 121.792 135.374 121.536C134.958 121.28 134.484 121.152 133.95 121.152C133.15 121.152 132.478 121.424 131.934 121.968C131.401 122.523 131.134 123.2 131.134 124C131.134 124.789 131.401 125.461 131.934 126.016C132.478 126.56 133.15 126.832 133.95 126.832C134.484 126.832 134.964 126.709 135.39 126.464C135.817 126.208 136.142 125.867 136.366 125.44L137.55 126.128C137.198 126.768 136.702 127.275 136.062 127.648C135.422 128.021 134.718 128.208 133.95 128.208ZM143.309 119.792C144.247 119.792 144.999 120.091 145.565 120.688C146.13 121.275 146.413 122.075 146.413 123.088V128H145.021V123.168C145.021 122.528 144.845 122.027 144.493 121.664C144.141 121.301 143.655 121.12 143.037 121.12C142.322 121.12 141.757 121.344 141.341 121.792C140.925 122.229 140.717 122.885 140.717 123.76V128H139.325V116.8H140.717V121.152C141.271 120.245 142.135 119.792 143.309 119.792ZM155.38 121.376V120H156.772V128H155.38V126.624C154.697 127.68 153.689 128.208 152.356 128.208C151.225 128.208 150.271 127.803 149.492 126.992C148.703 126.171 148.308 125.173 148.308 124C148.308 122.837 148.703 121.845 149.492 121.024C150.281 120.203 151.236 119.792 152.356 119.792C153.689 119.792 154.697 120.32 155.38 121.376ZM152.532 126.864C153.343 126.864 154.02 126.592 154.564 126.048C155.108 125.483 155.38 124.8 155.38 124C155.38 123.189 155.108 122.512 154.564 121.968C154.02 121.413 153.343 121.136 152.532 121.136C151.732 121.136 151.06 121.413 150.516 121.968C149.972 122.512 149.7 123.189 149.7 124C149.7 124.8 149.972 125.483 150.516 126.048C151.06 126.592 151.732 126.864 152.532 126.864ZM163.633 120V121.344H161.505V125.68C161.505 126.075 161.58 126.357 161.729 126.528C161.889 126.688 162.129 126.773 162.449 126.784C162.769 126.784 163.164 126.773 163.633 126.752V128C162.406 128.16 161.51 128.059 160.945 127.696C160.39 127.333 160.113 126.661 160.113 125.68V121.344H158.529V120H160.113V118.176L161.505 117.76V120H163.633ZM169.133 126.272L171.437 120H172.925L169.661 128.496C169.309 129.403 168.824 130.091 168.205 130.56C167.597 131.04 166.898 131.253 166.109 131.2V129.904C167.09 129.979 167.81 129.435 168.269 128.272L168.413 127.968L164.925 120H166.413L169.133 126.272ZM177.303 123.872L181.255 128H179.527L175.879 124.208V128H174.487V116.8H175.879V123.536L179.335 120H181.127L177.303 123.872ZM191.11 128.208C190.064 128.208 189.168 127.968 188.422 127.488C187.686 126.997 187.168 126.32 186.87 125.456L188.15 124.72C188.576 126.075 189.574 126.752 191.142 126.752C191.899 126.752 192.48 126.597 192.886 126.288C193.302 125.979 193.51 125.557 193.51 125.024C193.51 124.501 193.307 124.101 192.902 123.824C192.539 123.579 191.862 123.296 190.87 122.976L189.798 122.624C189.563 122.528 189.254 122.389 188.87 122.208C188.496 122.016 188.224 121.824 188.054 121.632C187.584 121.12 187.35 120.496 187.35 119.76C187.35 118.779 187.691 118.011 188.374 117.456C189.056 116.88 189.888 116.592 190.87 116.592C191.744 116.592 192.512 116.811 193.174 117.248C193.835 117.685 194.331 118.283 194.662 119.04L193.414 119.76C192.934 118.608 192.086 118.032 190.87 118.032C190.262 118.032 189.771 118.181 189.398 118.48C189.024 118.779 188.838 119.184 188.838 119.696C188.838 120.187 189.014 120.56 189.366 120.816C189.728 121.083 190.336 121.349 191.19 121.616L191.846 121.824C192.208 121.963 192.406 122.037 192.438 122.048C192.779 122.176 193.152 122.352 193.558 122.576C193.846 122.736 194.134 122.981 194.422 123.312C194.795 123.685 194.982 124.245 194.982 124.992C194.982 125.973 194.624 126.757 193.91 127.344C193.184 127.92 192.251 128.208 191.11 128.208ZM201.117 120V121.344H198.989V125.68C198.989 126.075 199.064 126.357 199.213 126.528C199.373 126.688 199.613 126.773 199.933 126.784C200.253 126.784 200.648 126.773 201.117 126.752V128C199.891 128.16 198.995 128.059 198.429 127.696C197.875 127.333 197.597 126.661 197.597 125.68V121.344H196.013V120H197.597V118.176L198.989 117.76V120H201.117ZM204.604 120V121.344C205.063 120.352 205.895 119.856 207.1 119.856V121.312C206.418 121.28 205.831 121.461 205.34 121.856C204.85 122.251 204.604 122.885 204.604 123.76V128H203.212V120H204.604ZM216.105 124.64H209.401C209.539 125.344 209.865 125.899 210.377 126.304C210.889 126.699 211.529 126.896 212.297 126.896C213.353 126.896 214.121 126.507 214.601 125.728L215.785 126.4C214.995 127.605 213.822 128.208 212.265 128.208C211.006 128.208 209.971 127.813 209.161 127.024C208.371 126.213 207.977 125.205 207.977 124C207.977 122.784 208.366 121.781 209.145 120.992C209.923 120.192 210.931 119.792 212.169 119.792C213.342 119.792 214.297 120.208 215.033 121.04C215.779 121.851 216.153 122.843 216.153 124.016C216.153 124.219 216.137 124.427 216.105 124.64ZM212.169 121.104C211.433 121.104 210.814 121.312 210.313 121.728C209.822 122.144 209.518 122.709 209.401 123.424H214.745C214.627 122.688 214.334 122.117 213.865 121.712C213.395 121.307 212.83 121.104 212.169 121.104ZM225.817 124.64H219.113C219.252 125.344 219.577 125.899 220.089 126.304C220.601 126.699 221.241 126.896 222.009 126.896C223.065 126.896 223.833 126.507 224.313 125.728L225.497 126.4C224.708 127.605 223.535 128.208 221.977 128.208C220.719 128.208 219.684 127.813 218.873 127.024C218.084 126.213 217.689 125.205 217.689 124C217.689 122.784 218.079 121.781 218.857 120.992C219.636 120.192 220.644 119.792 221.881 119.792C223.055 119.792 224.009 120.208 224.745 121.04C225.492 121.851 225.865 122.843 225.865 124.016C225.865 124.219 225.849 124.427 225.817 124.64ZM221.881 121.104C221.145 121.104 220.527 121.312 220.025 121.728C219.535 122.144 219.231 122.709 219.113 123.424H224.457C224.34 122.688 224.047 122.117 223.577 121.712C223.108 121.307 222.543 121.104 221.881 121.104ZM231.983 120V121.344H229.855V125.68C229.855 126.075 229.93 126.357 230.079 126.528C230.239 126.688 230.479 126.773 230.799 126.784C231.119 126.784 231.514 126.773 231.983 126.752V128C230.756 128.16 229.86 128.059 229.295 127.696C228.74 127.333 228.463 126.661 228.463 125.68V121.344H226.879V120H228.463V118.176L229.855 117.76V120H231.983ZM234.558 126.352H236.158L235.118 130.24H233.918L234.558 126.352ZM246.109 122.24L251.213 128H249.389L244.557 122.624V128H243.069V116.8H244.557V121.856L249.229 116.8H251.053L246.109 122.24ZM255.261 126.272L257.565 120H259.053L255.789 128.496C255.437 129.403 254.952 130.091 254.333 130.56C253.725 131.04 253.026 131.253 252.237 131.2V129.904C253.218 129.979 253.938 129.435 254.397 128.272L254.541 127.968L251.053 120H252.541L255.261 126.272ZM261.319 118.544C261.053 118.544 260.829 118.453 260.647 118.272C260.466 118.091 260.375 117.872 260.375 117.616C260.375 117.36 260.466 117.141 260.647 116.96C260.829 116.768 261.053 116.672 261.319 116.672C261.575 116.672 261.794 116.768 261.975 116.96C262.157 117.141 262.247 117.36 262.247 117.616C262.247 117.872 262.157 118.091 261.975 118.272C261.794 118.453 261.575 118.544 261.319 118.544ZM262.007 128H260.615V120H262.007V128ZM267.619 126.512L270.131 120H271.635L268.435 128H266.803L263.603 120H265.107L267.619 126.512Z" fill="#121212"/>
<path d="M41.12 159.2H44.62C45.4973 159.2 46.23 159.494 46.818 160.082C47.406 160.67 47.7 161.403 47.7 162.28C47.7 163.157 47.406 163.89 46.818 164.478C46.23 165.066 45.4973 165.36 44.62 165.36H42.1V169H41.12V159.2ZM42.1 164.436H44.62C45.2267 164.436 45.726 164.235 46.118 163.834C46.5193 163.433 46.72 162.915 46.72 162.28C46.72 161.655 46.5193 161.141 46.118 160.74C45.726 160.329 45.2267 160.124 44.62 160.124H42.1V164.436ZM52.5138 161.832C53.3538 161.832 54.0211 162.093 54.5158 162.616C55.0105 163.129 55.2578 163.825 55.2578 164.702V169H54.3338V164.702C54.3338 164.077 54.1658 163.591 53.8298 163.246C53.5031 162.901 53.0365 162.728 52.4298 162.728C51.7298 162.728 51.1745 162.947 50.7638 163.386C50.3625 163.825 50.1618 164.473 50.1618 165.332V169H49.2378V159.2H50.1618V163.092C50.6845 162.252 51.4685 161.832 52.5138 161.832ZM62.9105 168.118C62.1918 168.818 61.3238 169.168 60.3065 169.168C59.2705 169.168 58.3978 168.818 57.6885 168.118C56.9791 167.409 56.6245 166.536 56.6245 165.5C56.6245 164.464 56.9791 163.596 57.6885 162.896C58.3978 162.187 59.2705 161.832 60.3065 161.832C61.3331 161.832 62.2011 162.187 62.9105 162.896C63.6291 163.596 63.9885 164.464 63.9885 165.5C63.9885 166.527 63.6291 167.399 62.9105 168.118ZM58.3465 167.474C58.8785 168.006 59.5318 168.272 60.3065 168.272C61.0811 168.272 61.7345 168.006 62.2665 167.474C62.7985 166.923 63.0645 166.265 63.0645 165.5C63.0645 164.725 62.7985 164.072 62.2665 163.54C61.7345 162.999 61.0811 162.728 60.3065 162.728C59.5318 162.728 58.8785 162.999 58.3465 163.54C57.8145 164.072 57.5485 164.725 57.5485 165.5C57.5485 166.265 57.8145 166.923 58.3465 167.474ZM68.8107 161.832C69.6507 161.832 70.318 162.093 70.8127 162.616C71.3074 163.129 71.5547 163.825 71.5547 164.702V169H70.6307V164.702C70.6307 164.077 70.4627 163.591 70.1267 163.246C69.8 162.901 69.3334 162.728 68.7267 162.728C68.0267 162.728 67.4714 162.947 67.0607 163.386C66.6594 163.825 66.4587 164.473 66.4587 165.332V169H65.5347V162H66.4587V163.092C66.9814 162.252 67.7654 161.832 68.8107 161.832ZM76.5753 161.832C77.6207 161.832 78.456 162.201 79.0813 162.938C79.7253 163.666 80.0473 164.529 80.0473 165.528C80.0473 165.575 80.038 165.719 80.0193 165.962H73.8733C73.9667 166.662 74.2653 167.222 74.7693 167.642C75.2733 168.062 75.9033 168.272 76.6593 168.272C77.7233 168.272 78.4747 167.875 78.9133 167.082L79.7253 167.558C79.4173 168.062 78.9927 168.459 78.4513 168.748C77.9193 169.028 77.3173 169.168 76.6453 169.168C75.544 169.168 74.648 168.823 73.9573 168.132C73.2667 167.441 72.9213 166.564 72.9213 165.5C72.9213 164.445 73.262 163.573 73.9433 162.882C74.6247 162.182 75.502 161.832 76.5753 161.832ZM76.5753 162.728C75.8473 162.728 75.236 162.943 74.7413 163.372C74.256 163.801 73.9667 164.366 73.8733 165.066H79.0953C78.9927 164.319 78.708 163.745 78.2413 163.344C77.756 162.933 77.2007 162.728 76.5753 162.728Z" fill="#808080"/>
<path d="M45.024 189.728H47.808V191.056H45.024V193.84H43.696V191.056H40.928V189.728H43.696V186.96H45.024V189.728ZM56.6068 186.112L54.1747 189.392C55.0494 189.552 55.7534 189.925 56.2867 190.512C56.8201 191.099 57.0868 191.824 57.0868 192.688C57.0868 193.787 56.7134 194.645 55.9668 195.264C55.2094 195.893 54.3027 196.208 53.2467 196.208C52.3721 196.208 51.6094 196.011 50.9587 195.616C50.3081 195.221 49.8441 194.661 49.5667 193.936L50.8147 193.2C51.1454 194.235 51.9561 194.752 53.2467 194.752C53.9507 194.752 54.5161 194.571 54.9427 194.208C55.3801 193.835 55.5988 193.328 55.5988 192.688C55.5988 192.048 55.3801 191.541 54.9427 191.168C54.5161 190.795 53.9507 190.608 53.2467 190.608H52.8627L52.2707 189.696L54.8628 186.192H49.8867V184.8H56.6068V186.112ZM64.6092 190.208C65.7719 190.805 66.3532 191.712 66.3532 192.928C66.3532 193.952 65.9959 194.757 65.2812 195.344C64.5559 195.92 63.6332 196.208 62.5132 196.208C61.3932 196.208 60.4759 195.92 59.7612 195.344C59.0466 194.757 58.6892 193.952 58.6892 192.928C58.6892 191.712 59.2706 190.805 60.4332 190.208C59.5159 189.632 59.0572 188.816 59.0572 187.76C59.0572 186.747 59.3932 185.968 60.0652 185.424C60.7479 184.869 61.5639 184.592 62.5132 184.592C63.4839 184.592 64.2999 184.869 64.9612 185.424C65.6439 185.968 65.9852 186.747 65.9852 187.76C65.9852 188.816 65.5266 189.632 64.6092 190.208ZM62.5132 186.016C61.9266 186.016 61.4466 186.171 61.0732 186.48C60.7106 186.789 60.5292 187.227 60.5292 187.792C60.5292 188.347 60.7159 188.784 61.0892 189.104C61.4626 189.424 61.9372 189.584 62.5132 189.584C63.0892 189.584 63.5639 189.424 63.9372 189.104C64.3106 188.784 64.4972 188.347 64.4972 187.792C64.4972 187.227 64.3159 186.789 63.9532 186.48C63.5906 186.171 63.1106 186.016 62.5132 186.016ZM62.5132 194.784C63.2386 194.784 63.8146 194.613 64.2412 194.272C64.6679 193.931 64.8812 193.451 64.8812 192.832C64.8812 192.224 64.6679 191.749 64.2412 191.408C63.8146 191.067 63.2386 190.896 62.5132 190.896C61.7986 190.896 61.2279 191.067 60.8012 191.408C60.3746 191.749 60.1612 192.224 60.1612 192.832C60.1612 193.451 60.3746 193.931 60.8012 194.272C61.2279 194.613 61.7986 194.784 62.5132 194.784ZM75.5803 194.624C74.8336 195.68 73.7723 196.208 72.3963 196.208C71.0203 196.208 69.9589 195.68 69.2123 194.624C68.4549 193.557 68.0763 192.149 68.0763 190.4C68.0763 188.651 68.4549 187.243 69.2123 186.176C69.9589 185.12 71.0203 184.592 72.3963 184.592C73.7723 184.592 74.8336 185.12 75.5803 186.176C76.3376 187.243 76.7163 188.651 76.7163 190.4C76.7163 192.149 76.3376 193.557 75.5803 194.624ZM69.5643 190.4C69.5643 191.787 69.8096 192.859 70.3003 193.616C70.7909 194.373 71.4896 194.752 72.3963 194.752C73.3029 194.752 74.0016 194.373 74.4923 193.616C74.9936 192.859 75.2443 191.787 75.2443 190.4C75.2443 189.013 74.9936 187.941 74.4923 187.184C74.0016 186.416 73.3029 186.032 72.3963 186.032C71.4896 186.032 70.7909 186.411 70.3003 187.168C69.8096 187.925 69.5643 189.003 69.5643 190.4ZM85.9944 188.352C85.9944 189.227 85.765 189.979 85.3064 190.608H85.3224L81.7064 196H80.0264L82.6824 192.08C82.3624 192.101 82.181 192.112 82.1384 192.112C81.0077 192.112 80.0797 191.765 79.3544 191.072C78.6397 190.368 78.2824 189.461 78.2824 188.352C78.2824 187.232 78.6397 186.331 79.3544 185.648C80.069 184.944 80.997 184.592 82.1384 184.592C83.2584 184.592 84.181 184.944 84.9064 185.648C85.6317 186.341 85.9944 187.243 85.9944 188.352ZM82.1384 186.016C81.4344 186.016 80.8584 186.229 80.4104 186.656C79.973 187.083 79.7544 187.648 79.7544 188.352C79.7544 189.056 79.973 189.627 80.4104 190.064C80.8584 190.491 81.4344 190.704 82.1384 190.704C82.8424 190.704 83.413 190.491 83.8504 190.064C84.2984 189.627 84.5224 189.056 84.5224 188.352C84.5224 187.648 84.3037 187.083 83.8664 186.656C83.429 186.229 82.853 186.016 82.1384 186.016ZM93.3718 190.208C94.5344 190.805 95.1158 191.712 95.1158 192.928C95.1158 193.952 94.7584 194.757 94.0438 195.344C93.3184 195.92 92.3958 196.208 91.2758 196.208C90.1558 196.208 89.2384 195.92 88.5238 195.344C87.8091 194.757 87.4518 193.952 87.4518 192.928C87.4518 191.712 88.0331 190.805 89.1957 190.208C88.2784 189.632 87.8198 188.816 87.8198 187.76C87.8198 186.747 88.1558 185.968 88.8278 185.424C89.5104 184.869 90.3264 184.592 91.2758 184.592C92.2464 184.592 93.0624 184.869 93.7238 185.424C94.4064 185.968 94.7478 186.747 94.7478 187.76C94.7478 188.816 94.2891 189.632 93.3718 190.208ZM91.2758 186.016C90.6891 186.016 90.2091 186.171 89.8358 186.48C89.4731 186.789 89.2918 187.227 89.2918 187.792C89.2918 188.347 89.4784 188.784 89.8518 189.104C90.2251 189.424 90.6998 189.584 91.2758 189.584C91.8518 189.584 92.3264 189.424 92.6998 189.104C93.0731 188.784 93.2598 188.347 93.2598 187.792C93.2598 187.227 93.0784 186.789 92.7158 186.48C92.3531 186.171 91.8731 186.016 91.2758 186.016ZM91.2758 194.784C92.0011 194.784 92.5771 194.613 93.0038 194.272C93.4304 193.931 93.6438 193.451 93.6438 192.832C93.6438 192.224 93.4304 191.749 93.0038 191.408C92.5771 191.067 92.0011 190.896 91.2758 190.896C90.5611 190.896 89.9904 191.067 89.5638 191.408C89.1371 191.749 88.9238 192.224 88.9238 192.832C88.9238 193.451 89.1371 193.931 89.5638 194.272C89.9904 194.613 90.5611 194.784 91.2758 194.784ZM104.343 194.624C103.596 195.68 102.535 196.208 101.159 196.208C99.7828 196.208 98.7214 195.68 97.9748 194.624C97.2174 193.557 96.8388 192.149 96.8388 190.4C96.8388 188.651 97.2174 187.243 97.9748 186.176C98.7214 185.12 99.7828 184.592 101.159 184.592C102.535 184.592 103.596 185.12 104.343 186.176C105.1 187.243 105.479 188.651 105.479 190.4C105.479 192.149 105.1 193.557 104.343 194.624ZM98.3268 190.4C98.3268 191.787 98.5721 192.859 99.0628 193.616C99.5534 194.373 100.252 194.752 101.159 194.752C102.065 194.752 102.764 194.373 103.255 193.616C103.756 192.859 104.007 191.787 104.007 190.4C104.007 189.013 103.756 187.941 103.255 187.184C102.764 186.416 102.065 186.032 101.159 186.032C100.252 186.032 99.5534 186.411 99.0628 187.168C98.5721 187.925 98.3268 189.003 98.3268 190.4ZM114.821 194.624C114.074 195.68 113.013 196.208 111.637 196.208C110.261 196.208 109.2 195.68 108.453 194.624C107.696 193.557 107.317 192.149 107.317 190.4C107.317 188.651 107.696 187.243 108.453 186.176C109.2 185.12 110.261 184.592 111.637 184.592C113.013 184.592 114.074 185.12 114.821 186.176C115.578 187.243 115.957 188.651 115.957 190.4C115.957 192.149 115.578 193.557 114.821 194.624ZM108.805 190.4C108.805 191.787 109.05 192.859 109.541 193.616C110.032 194.373 110.73 194.752 111.637 194.752C112.544 194.752 113.242 194.373 113.733 193.616C114.234 192.859 114.485 191.787 114.485 190.4C114.485 189.013 114.234 187.941 113.733 187.184C113.242 186.416 112.544 186.032 111.637 186.032C110.73 186.032 110.032 186.411 109.541 187.168C109.05 187.925 108.805 189.003 108.805 190.4ZM125.235 188.352C125.235 189.227 125.006 189.979 124.547 190.608H124.563L120.947 196H119.267L121.923 192.08C121.603 192.101 121.422 192.112 121.379 192.112C120.248 192.112 119.32 191.765 118.595 191.072C117.88 190.368 117.523 189.461 117.523 188.352C117.523 187.232 117.88 186.331 118.595 185.648C119.31 184.944 120.238 184.592 121.379 184.592C122.499 184.592 123.422 184.944 124.147 185.648C124.872 186.341 125.235 187.243 125.235 188.352ZM121.379 186.016C120.675 186.016 120.099 186.229 119.651 186.656C119.214 187.083 118.995 187.648 118.995 188.352C118.995 189.056 119.214 189.627 119.651 190.064C120.099 190.491 120.675 190.704 121.379 190.704C122.083 190.704 122.654 190.491 123.091 190.064C123.539 189.627 123.763 189.056 123.763 188.352C123.763 187.648 123.544 187.083 123.107 186.656C122.67 186.229 122.094 186.016 121.379 186.016ZM134.244 188.352C134.244 189.227 134.015 189.979 133.556 190.608H133.572L129.956 196H128.276L130.932 192.08C130.612 192.101 130.431 192.112 130.388 192.112C129.258 192.112 128.33 191.765 127.604 191.072C126.89 190.368 126.532 189.461 126.532 188.352C126.532 187.232 126.89 186.331 127.604 185.648C128.319 184.944 129.247 184.592 130.388 184.592C131.508 184.592 132.431 184.944 133.156 185.648C133.882 186.341 134.244 187.243 134.244 188.352ZM130.388 186.016C129.684 186.016 129.108 186.229 128.66 186.656C128.223 187.083 128.004 187.648 128.004 188.352C128.004 189.056 128.223 189.627 128.66 190.064C129.108 190.491 129.684 190.704 130.388 190.704C131.092 190.704 131.663 190.491 132.1 190.064C132.548 189.627 132.772 189.056 132.772 188.352C132.772 187.648 132.554 187.083 132.116 186.656C131.679 186.229 131.103 186.016 130.388 186.016ZM135.069 186.208V184.8H142.061V186.128L137.981 196H136.429L140.477 186.208H135.069ZM143.313 186.208V184.8H150.305V186.128L146.225 196H144.673L148.721 186.208H143.313ZM151.557 186.208V184.8H158.549V186.128L154.469 196H152.917L156.965 186.208H151.557Z" fill="#121212"/>
<path d="M45.586 232.338H50.486V232.842C50.486 234.055 50.052 235.082 49.184 235.922C48.3067 236.753 47.1447 237.168 45.698 237.168C44.2047 237.168 42.9773 236.678 42.016 235.698C41.0453 234.709 40.56 233.509 40.56 232.1C40.56 230.691 41.0453 229.491 42.016 228.502C42.9773 227.522 44.2047 227.032 45.698 227.032C46.594 227.032 47.4247 227.251 48.19 227.69C48.946 228.129 49.5293 228.712 49.94 229.44L49.072 229.944C48.764 229.347 48.3067 228.871 47.7 228.516C47.0933 228.161 46.426 227.984 45.698 227.984C44.466 227.984 43.4673 228.381 42.702 229.174C41.9273 229.977 41.54 230.952 41.54 232.1C41.54 233.248 41.9273 234.223 42.702 235.026C43.4673 235.819 44.466 236.216 45.698 236.216C46.7993 236.216 47.6813 235.941 48.344 235.39C48.9973 234.83 49.3753 234.121 49.478 233.262H45.586V232.338ZM55.2609 229.832C56.3062 229.832 57.1415 230.201 57.7669 230.938C58.4109 231.666 58.7329 232.529 58.7329 233.528C58.7329 233.575 58.7235 233.719 58.7049 233.962H52.5589C52.6522 234.662 52.9509 235.222 53.4549 235.642C53.9589 236.062 54.5889 236.272 55.3449 236.272C56.4089 236.272 57.1602 235.875 57.5989 235.082L58.4109 235.558C58.1029 236.062 57.6782 236.459 57.1369 236.748C56.6049 237.028 56.0029 237.168 55.3309 237.168C54.2295 237.168 53.3335 236.823 52.6429 236.132C51.9522 235.441 51.6069 234.564 51.6069 233.5C51.6069 232.445 51.9475 231.573 52.6289 230.882C53.3102 230.182 54.1875 229.832 55.2609 229.832ZM55.2609 230.728C54.5329 230.728 53.9215 230.943 53.4269 231.372C52.9415 231.801 52.6522 232.366 52.5589 233.066H57.7809C57.6782 232.319 57.3935 231.745 56.9269 231.344C56.4415 230.933 55.8862 230.728 55.2609 230.728ZM63.4787 229.832C64.3187 229.832 64.986 230.093 65.4807 230.616C65.9753 231.129 66.2227 231.825 66.2227 232.702V237H65.2987V232.702C65.2987 232.077 65.1307 231.591 64.7947 231.246C64.468 230.901 64.0013 230.728 63.3947 230.728C62.6947 230.728 62.1393 230.947 61.7287 231.386C61.3273 231.825 61.1267 232.473 61.1267 233.332V237H60.2027V230H61.1267V231.092C61.6493 230.252 62.4333 229.832 63.4787 229.832ZM71.2433 229.832C72.2886 229.832 73.124 230.201 73.7493 230.938C74.3933 231.666 74.7153 232.529 74.7153 233.528C74.7153 233.575 74.706 233.719 74.6873 233.962H68.5413C68.6346 234.662 68.9333 235.222 69.4373 235.642C69.9413 236.062 70.5713 236.272 71.3273 236.272C72.3913 236.272 73.1426 235.875 73.5813 235.082L74.3933 235.558C74.0853 236.062 73.6606 236.459 73.1193 236.748C72.5873 237.028 71.9853 237.168 71.3133 237.168C70.212 237.168 69.316 236.823 68.6253 236.132C67.9346 235.441 67.5893 234.564 67.5893 233.5C67.5893 232.445 67.93 231.573 68.6113 230.882C69.2926 230.182 70.17 229.832 71.2433 229.832ZM71.2433 230.728C70.5153 230.728 69.904 230.943 69.4093 231.372C68.924 231.801 68.6346 232.366 68.5413 233.066H73.7633C73.6606 232.319 73.376 231.745 72.9093 231.344C72.424 230.933 71.8686 230.728 71.2433 230.728ZM77.1091 230V231.162C77.5384 230.313 78.2757 229.888 79.3211 229.888V230.784C78.6491 230.784 78.1124 230.98 77.7111 231.372C77.3097 231.755 77.1091 232.333 77.1091 233.108V237H76.1851V230H77.1091ZM86.1836 231.372V230H87.1076V237H86.1836V235.628C85.5396 236.655 84.5969 237.168 83.3556 237.168C82.3569 237.168 81.5029 236.813 80.7936 236.104C80.0936 235.395 79.7436 234.527 79.7436 233.5C79.7436 232.473 80.0936 231.605 80.7936 230.896C81.5029 230.187 82.3569 229.832 83.3556 229.832C84.5969 229.832 85.5396 230.345 86.1836 231.372ZM81.4656 235.474C81.9976 236.006 82.6509 236.272 83.4256 236.272C84.2003 236.272 84.8536 236.006 85.3856 235.474C85.9176 234.923 86.1836 234.265 86.1836 233.5C86.1836 232.725 85.9176 232.072 85.3856 231.54C84.8536 230.999 84.2003 230.728 83.4256 230.728C82.6509 230.728 81.9976 230.999 81.4656 231.54C80.9336 232.072 80.6676 232.725 80.6676 233.5C80.6676 234.265 80.9336 234.923 81.4656 235.474ZM89.988 237H89.064V226.78H89.988V237ZM96.5688 232.52V236.076H101.329V237H95.5888V227.2H101.259V228.124H96.5688V231.596H100.909V232.52H96.5688ZM106.149 229.832C106.989 229.832 107.656 230.093 108.151 230.616C108.645 231.129 108.893 231.825 108.893 232.702V237H107.969V232.702C107.969 232.077 107.801 231.591 107.465 231.246C107.138 230.901 106.671 230.728 106.065 230.728C105.365 230.728 104.809 230.947 104.399 231.386C103.997 231.825 103.797 232.473 103.797 233.332V237H102.873V230H103.797V231.092C104.319 230.252 105.103 229.832 106.149 229.832ZM116.699 231.372V230H117.623V239.8H116.699V235.628C116.055 236.655 115.113 237.168 113.871 237.168C112.873 237.168 112.019 236.813 111.309 236.104C110.609 235.395 110.259 234.527 110.259 233.5C110.259 232.473 110.609 231.605 111.309 230.896C112.019 230.187 112.873 229.832 113.871 229.832C115.113 229.832 116.055 230.345 116.699 231.372ZM111.981 235.474C112.513 236.006 113.167 236.272 113.941 236.272C114.716 236.272 115.369 236.006 115.901 235.474C116.433 234.923 116.699 234.265 116.699 233.5C116.699 232.725 116.433 232.072 115.901 231.54C115.369 230.999 114.716 230.728 113.941 230.728C113.167 230.728 112.513 230.999 111.981 231.54C111.449 232.072 111.183 232.725 111.183 233.5C111.183 234.265 111.449 234.923 111.981 235.474ZM124.508 233.668V230H125.432V237H124.508V235.908C123.985 236.748 123.201 237.168 122.156 237.168C121.316 237.168 120.648 236.911 120.154 236.398C119.659 235.875 119.412 235.175 119.412 234.298V230H120.336V234.298C120.336 234.923 120.499 235.409 120.826 235.754C121.162 236.099 121.633 236.272 122.24 236.272C122.94 236.272 123.49 236.053 123.892 235.614C124.302 235.175 124.508 234.527 124.508 233.668ZM128.52 227.844C128.52 228.031 128.455 228.189 128.324 228.32C128.194 228.451 128.035 228.516 127.848 228.516C127.662 228.516 127.503 228.451 127.372 228.32C127.242 228.189 127.176 228.031 127.176 227.844C127.176 227.657 127.242 227.499 127.372 227.368C127.503 227.237 127.662 227.172 127.848 227.172C128.035 227.172 128.194 227.237 128.324 227.368C128.455 227.499 128.52 227.657 128.52 227.844ZM128.31 237H127.386V230H128.31V237ZM131.195 230V231.162C131.624 230.313 132.362 229.888 133.407 229.888V230.784C132.735 230.784 132.198 230.98 131.797 231.372C131.396 231.755 131.195 232.333 131.195 233.108V237H130.271V230H131.195ZM137.582 235.866L139.85 230H140.83L137.834 237.644C137.554 238.353 137.162 238.899 136.658 239.282C136.163 239.674 135.613 239.847 135.006 239.8V238.932C135.846 239.035 136.485 238.549 136.924 237.476L137.106 237.042L133.97 230H134.95L137.582 235.866ZM143.347 230.63C143.347 230.845 143.272 231.027 143.123 231.176C142.973 231.325 142.791 231.4 142.577 231.4C142.362 231.4 142.18 231.325 142.031 231.176C141.881 231.027 141.807 230.845 141.807 230.63C141.807 230.415 141.881 230.233 142.031 230.084C142.18 229.935 142.362 229.86 142.577 229.86C142.791 229.86 142.973 229.935 143.123 230.084C143.272 230.233 143.347 230.415 143.347 230.63ZM143.347 236.37C143.347 236.585 143.272 236.767 143.123 236.916C142.973 237.065 142.791 237.14 142.577 237.14C142.362 237.14 142.18 237.065 142.031 236.916C141.881 236.767 141.807 236.585 141.807 236.37C141.807 236.155 141.881 235.973 142.031 235.824C142.18 235.675 142.362 235.6 142.577 235.6C142.791 235.6 142.973 235.675 143.123 235.824C143.272 235.973 143.347 236.155 143.347 236.37Z" fill="#808080"/>
<path d="M44.24 258.24L49.344 264H47.52L42.688 258.624V264H41.2V252.8H42.688V257.856L47.36 252.8H49.184L44.24 258.24ZM51.6287 254.544C51.3621 254.544 51.1381 254.453 50.9567 254.272C50.7754 254.091 50.6847 253.872 50.6847 253.616C50.6847 253.36 50.7754 253.141 50.9567 252.96C51.1381 252.768 51.3621 252.672 51.6287 252.672C51.8847 252.672 52.1034 252.768 52.2847 252.96C52.4661 253.141 52.5567 253.36 52.5567 253.616C52.5567 253.872 52.4661 254.091 52.2847 254.272C52.1034 254.453 51.8847 254.544 51.6287 254.544ZM52.3167 264H50.9247V256H52.3167V264ZM62.5204 260.64H55.8164C55.955 261.344 56.2804 261.899 56.7924 262.304C57.3044 262.699 57.9444 262.896 58.7124 262.896C59.7684 262.896 60.5364 262.507 61.0164 261.728L62.2004 262.4C61.411 263.605 60.2377 264.208 58.6804 264.208C57.4217 264.208 56.387 263.813 55.5764 263.024C54.787 262.213 54.3924 261.205 54.3924 260C54.3924 258.784 54.7817 257.781 55.5604 256.992C56.339 256.192 57.347 255.792 58.5844 255.792C59.7577 255.792 60.7124 256.208 61.4484 257.04C62.195 257.851 62.5684 258.843 62.5684 260.016C62.5684 260.219 62.5524 260.427 62.5204 260.64ZM58.5844 257.104C57.8484 257.104 57.2297 257.312 56.7284 257.728C56.2377 258.144 55.9337 258.709 55.8164 259.424H61.1604C61.043 258.688 60.7497 258.117 60.2804 257.712C59.811 257.307 59.2457 257.104 58.5844 257.104ZM67.344 262.512L69.856 256H71.36L68.16 264H66.528L63.328 256H64.832L67.344 262.512ZM72.3641 264.176C72.0761 264.176 71.8308 264.075 71.6281 263.872C71.4255 263.669 71.3241 263.424 71.3241 263.136C71.3241 262.848 71.4255 262.603 71.6281 262.4C71.8308 262.197 72.0761 262.096 72.3641 262.096C72.6628 262.096 72.9081 262.197 73.1001 262.4C73.3028 262.603 73.4041 262.848 73.4041 263.136C73.4041 263.424 73.3028 263.669 73.1001 263.872C72.9081 264.075 72.6628 264.176 72.3641 264.176ZM82.3668 252.8V254.208H77.4068V257.84H82.1588V259.248H77.4068V264H75.9188V252.8H82.3668ZM85.8168 264H84.4248V252.32H85.8168V264ZM95.0924 262.992C94.2817 263.803 93.2844 264.208 92.1004 264.208C90.9164 264.208 89.919 263.803 89.1084 262.992C88.2977 262.181 87.8924 261.184 87.8924 260C87.8924 258.816 88.2977 257.819 89.1084 257.008C89.919 256.197 90.9164 255.792 92.1004 255.792C93.2844 255.792 94.2817 256.197 95.0924 257.008C95.9137 257.829 96.3244 258.827 96.3244 260C96.3244 261.173 95.9137 262.171 95.0924 262.992ZM92.1004 262.848C92.9004 262.848 93.5724 262.576 94.1164 262.032C94.6604 261.488 94.9324 260.811 94.9324 260C94.9324 259.189 94.6604 258.512 94.1164 257.968C93.5724 257.424 92.9004 257.152 92.1004 257.152C91.311 257.152 90.6444 257.424 90.1004 257.968C89.5564 258.512 89.2844 259.189 89.2844 260C89.2844 260.811 89.5564 261.488 90.1004 262.032C90.6444 262.576 91.311 262.848 92.1004 262.848ZM99.7574 256V257.344C100.216 256.352 101.048 255.856 102.253 255.856V257.312C101.571 257.28 100.984 257.461 100.493 257.856C100.003 258.251 99.7574 258.885 99.7574 259.76V264H98.3654V256H99.7574ZM104.719 254.544C104.453 254.544 104.229 254.453 104.047 254.272C103.866 254.091 103.775 253.872 103.775 253.616C103.775 253.36 103.866 253.141 104.047 252.96C104.229 252.768 104.453 252.672 104.719 252.672C104.975 252.672 105.194 252.768 105.375 252.96C105.557 253.141 105.647 253.36 105.647 253.616C105.647 253.872 105.557 254.091 105.375 254.272C105.194 254.453 104.975 254.544 104.719 254.544ZM105.407 264H104.015V256H105.407V264ZM109.115 258.16C109.115 258.672 109.643 259.072 110.699 259.36C111.094 259.445 111.425 259.536 111.691 259.632C111.969 259.717 112.267 259.851 112.587 260.032C112.918 260.213 113.169 260.453 113.339 260.752C113.51 261.051 113.595 261.403 113.595 261.808C113.595 262.533 113.313 263.115 112.747 263.552C112.182 263.989 111.467 264.208 110.603 264.208C109.835 264.208 109.169 264.043 108.603 263.712C108.049 263.371 107.654 262.912 107.419 262.336L108.619 261.648C108.747 262.032 108.987 262.336 109.339 262.56C109.691 262.784 110.113 262.896 110.603 262.896C111.083 262.896 111.467 262.805 111.755 262.624C112.043 262.443 112.187 262.171 112.187 261.808C112.187 261.264 111.659 260.869 110.603 260.624C110.251 260.528 109.985 260.453 109.803 260.4C109.622 260.347 109.371 260.251 109.051 260.112C108.742 259.973 108.507 259.829 108.347 259.68C108.187 259.52 108.038 259.312 107.899 259.056C107.771 258.789 107.707 258.496 107.707 258.176C107.707 257.483 107.974 256.912 108.507 256.464C109.051 256.016 109.729 255.792 110.539 255.792C111.19 255.792 111.766 255.941 112.267 256.24C112.779 256.528 113.163 256.933 113.419 257.456L112.251 258.112C111.963 257.429 111.393 257.088 110.539 257.088C110.134 257.088 109.793 257.184 109.515 257.376C109.249 257.568 109.115 257.829 109.115 258.16ZM119.683 256V257.344H117.555V261.68C117.555 262.075 117.63 262.357 117.779 262.528C117.939 262.688 118.179 262.773 118.499 262.784C118.819 262.784 119.214 262.773 119.683 262.752V264C118.456 264.16 117.56 264.059 116.995 263.696C116.44 263.333 116.163 262.661 116.163 261.68V257.344H114.579V256H116.163V254.176L117.555 253.76V256H119.683ZM122.658 264.176C122.37 264.176 122.125 264.075 121.922 263.872C121.719 263.669 121.618 263.424 121.618 263.136C121.618 262.848 121.719 262.603 121.922 262.4C122.125 262.197 122.37 262.096 122.658 262.096C122.957 262.096 123.202 262.197 123.394 262.4C123.597 262.603 123.698 262.848 123.698 263.136C123.698 263.424 123.597 263.669 123.394 263.872C123.202 264.075 122.957 264.176 122.658 264.176ZM129.657 264.208C128.611 264.208 127.715 263.968 126.969 263.488C126.233 262.997 125.715 262.32 125.417 261.456L126.697 260.72C127.123 262.075 128.121 262.752 129.689 262.752C130.446 262.752 131.027 262.597 131.433 262.288C131.849 261.979 132.057 261.557 132.057 261.024C132.057 260.501 131.854 260.101 131.449 259.824C131.086 259.579 130.409 259.296 129.417 258.976L128.345 258.624C128.11 258.528 127.801 258.389 127.417 258.208C127.043 258.016 126.771 257.824 126.601 257.632C126.131 257.12 125.897 256.496 125.897 255.76C125.897 254.779 126.238 254.011 126.921 253.456C127.603 252.88 128.435 252.592 129.417 252.592C130.291 252.592 131.059 252.811 131.721 253.248C132.382 253.685 132.878 254.283 133.209 255.04L131.961 255.76C131.481 254.608 130.633 254.032 129.417 254.032C128.809 254.032 128.318 254.181 127.945 254.48C127.571 254.779 127.385 255.184 127.385 255.696C127.385 256.187 127.561 256.56 127.913 256.816C128.275 257.083 128.883 257.349 129.737 257.616L130.393 257.824C130.755 257.963 130.953 258.037 130.985 258.048C131.326 258.176 131.699 258.352 132.105 258.576C132.393 258.736 132.681 258.981 132.969 259.312C133.342 259.685 133.529 260.245 133.529 260.992C133.529 261.973 133.171 262.757 132.457 263.344C131.731 263.92 130.798 264.208 129.657 264.208ZM139.664 256V257.344H137.536V261.68C137.536 262.075 137.611 262.357 137.76 262.528C137.92 262.688 138.16 262.773 138.48 262.784C138.8 262.784 139.195 262.773 139.664 262.752V264C138.438 264.16 137.542 264.059 136.976 263.696C136.422 263.333 136.144 262.661 136.144 261.68V257.344H134.56V256H136.144V254.176L137.536 253.76V256H139.664ZM147.279 260.24V256H148.671V264H147.279V262.848C146.724 263.755 145.86 264.208 144.687 264.208C143.748 264.208 142.996 263.915 142.431 263.328C141.866 262.731 141.583 261.925 141.583 260.912V256H142.975V260.832C142.975 261.472 143.151 261.973 143.503 262.336C143.855 262.699 144.34 262.88 144.959 262.88C145.674 262.88 146.239 262.661 146.655 262.224C147.071 261.776 147.279 261.115 147.279 260.24ZM157.814 257.376V252.8H159.206V264H157.814V262.624C157.132 263.68 156.124 264.208 154.79 264.208C153.66 264.208 152.705 263.803 151.926 262.992C151.137 262.171 150.742 261.173 150.742 260C150.742 258.837 151.137 257.845 151.926 257.024C152.716 256.203 153.67 255.792 154.79 255.792C156.124 255.792 157.132 256.32 157.814 257.376ZM154.966 262.864C155.777 262.864 156.454 262.592 156.998 262.048C157.542 261.483 157.814 260.8 157.814 260C157.814 259.189 157.542 258.512 156.998 257.968C156.454 257.413 155.777 257.136 154.966 257.136C154.166 257.136 153.494 257.413 152.95 257.968C152.406 258.512 152.134 259.189 152.134 260C152.134 260.8 152.406 261.483 152.95 262.048C153.494 262.592 154.166 262.864 154.966 262.864ZM162.419 254.544C162.153 254.544 161.929 254.453 161.747 254.272C161.566 254.091 161.475 253.872 161.475 253.616C161.475 253.36 161.566 253.141 161.747 252.96C161.929 252.768 162.153 252.672 162.419 252.672C162.675 252.672 162.894 252.768 163.075 252.96C163.257 253.141 163.347 253.36 163.347 253.616C163.347 253.872 163.257 254.091 163.075 254.272C162.894 254.453 162.675 254.544 162.419 254.544ZM163.107 264H161.715V256H163.107V264ZM172.383 262.992C171.572 263.803 170.575 264.208 169.391 264.208C168.207 264.208 167.21 263.803 166.399 262.992C165.588 262.181 165.183 261.184 165.183 260C165.183 258.816 165.588 257.819 166.399 257.008C167.21 256.197 168.207 255.792 169.391 255.792C170.575 255.792 171.572 256.197 172.383 257.008C173.204 257.829 173.615 258.827 173.615 260C173.615 261.173 173.204 262.171 172.383 262.992ZM169.391 262.848C170.191 262.848 170.863 262.576 171.407 262.032C171.951 261.488 172.223 260.811 172.223 260C172.223 259.189 171.951 258.512 171.407 257.968C170.863 257.424 170.191 257.152 169.391 257.152C168.602 257.152 167.935 257.424 167.391 257.968C166.847 258.512 166.575 259.189 166.575 260C166.575 260.811 166.847 261.488 167.391 262.032C167.935 262.576 168.602 262.848 169.391 262.848ZM181.032 254.208C182.163 254.208 183.165 254.485 184.04 255.04C184.893 255.573 185.539 256.251 185.976 257.072C186.413 257.883 186.632 258.752 186.632 259.68C186.632 260.789 186.397 261.643 185.928 262.24C185.459 262.816 184.899 263.104 184.248 263.104C183.235 263.104 182.6 262.656 182.344 261.76C181.917 262.304 181.347 262.576 180.632 262.576C179.907 262.576 179.304 262.331 178.824 261.84C178.355 261.339 178.12 260.725 178.12 260C178.12 259.275 178.355 258.661 178.824 258.16C179.304 257.669 179.907 257.424 180.632 257.424C181.272 257.424 181.811 257.659 182.248 258.128V257.552H183.48V261.088C183.48 262.027 183.816 262.496 184.488 262.496C184.979 262.496 185.368 262.256 185.656 261.776C185.955 261.296 186.104 260.597 186.104 259.68C186.104 258.272 185.613 257.088 184.632 256.128C183.661 255.168 182.461 254.688 181.032 254.688C179.56 254.688 178.307 255.2 177.272 256.224C176.237 257.227 175.72 258.485 175.72 260C175.72 261.536 176.248 262.805 177.304 263.808C178.371 264.811 179.709 265.312 181.32 265.312C182.397 265.312 183.304 265.163 184.04 264.864V265.376C183.272 265.653 182.365 265.792 181.32 265.792C179.571 265.792 178.115 265.243 176.952 264.144C175.789 263.056 175.208 261.675 175.208 260C175.208 258.4 175.763 257.035 176.872 255.904C177.992 254.773 179.379 254.208 181.032 254.208ZM179.784 261.04C180.072 261.296 180.419 261.424 180.824 261.424C181.229 261.424 181.565 261.296 181.832 261.04C182.109 260.763 182.248 260.416 182.248 260C182.248 259.573 182.109 259.232 181.832 258.976C181.565 258.709 181.229 258.576 180.824 258.576C180.419 258.576 180.072 258.709 179.784 258.976C179.507 259.232 179.368 259.573 179.368 260C179.368 260.416 179.507 260.763 179.784 261.04ZM195.321 257.376V256H196.697V263.664C196.697 264.848 196.297 265.765 195.497 266.416C194.686 267.077 193.726 267.408 192.617 267.408C191.721 267.408 190.948 267.237 190.297 266.896C189.646 266.565 189.156 266.085 188.825 265.456L190.041 264.768C190.478 265.664 191.348 266.112 192.649 266.112C193.481 266.112 194.132 265.893 194.601 265.456C195.081 265.019 195.321 264.421 195.321 263.664V262.528C194.617 263.595 193.614 264.128 192.313 264.128C191.161 264.128 190.196 263.723 189.417 262.912C188.628 262.091 188.233 261.104 188.233 259.952C188.233 258.8 188.628 257.819 189.417 257.008C190.196 256.197 191.161 255.792 192.313 255.792C193.625 255.792 194.628 256.32 195.321 257.376ZM195.321 259.952C195.321 259.152 195.049 258.48 194.505 257.936C193.961 257.392 193.284 257.12 192.473 257.12C191.662 257.12 190.985 257.392 190.441 257.936C189.897 258.48 189.625 259.152 189.625 259.952C189.625 260.763 189.897 261.44 190.441 261.984C190.985 262.528 191.662 262.8 192.473 262.8C193.284 262.8 193.961 262.528 194.505 261.984C195.049 261.44 195.321 260.763 195.321 259.952ZM207.846 255.792C208.753 255.792 209.478 256.085 210.022 256.672C210.577 257.259 210.854 258.043 210.854 259.024V264H209.462V259.072C209.462 258.464 209.302 257.989 208.982 257.648C208.673 257.296 208.246 257.12 207.702 257.12C207.083 257.12 206.598 257.328 206.246 257.744C205.905 258.149 205.734 258.752 205.734 259.552V264H204.342V259.072C204.342 258.464 204.187 257.989 203.878 257.648C203.579 257.296 203.169 257.12 202.646 257.12C202.038 257.12 201.542 257.333 201.158 257.76C200.785 258.176 200.598 258.773 200.598 259.552V264H199.206V256H200.598V257.072C201.142 256.219 201.937 255.792 202.982 255.792C204.059 255.792 204.843 256.245 205.334 257.152C205.889 256.245 206.726 255.792 207.846 255.792ZM219.808 257.376V256H221.2V264H219.808V262.624C219.125 263.68 218.117 264.208 216.784 264.208C215.653 264.208 214.699 263.803 213.92 262.992C213.131 262.171 212.736 261.173 212.736 260C212.736 258.837 213.131 257.845 213.92 257.024C214.709 256.203 215.664 255.792 216.784 255.792C218.117 255.792 219.125 256.32 219.808 257.376ZM216.96 262.864C217.771 262.864 218.448 262.592 218.992 262.048C219.536 261.483 219.808 260.8 219.808 260C219.808 259.189 219.536 258.512 218.992 257.968C218.448 257.413 217.771 257.136 216.96 257.136C216.16 257.136 215.488 257.413 214.944 257.968C214.4 258.512 214.128 259.189 214.128 260C214.128 260.8 214.4 261.483 214.944 262.048C215.488 262.592 216.16 262.864 216.96 262.864ZM224.413 254.544C224.146 254.544 223.922 254.453 223.741 254.272C223.56 254.091 223.469 253.872 223.469 253.616C223.469 253.36 223.56 253.141 223.741 252.96C223.922 252.768 224.146 252.672 224.413 252.672C224.669 252.672 224.888 252.768 225.069 252.96C225.25 253.141 225.341 253.36 225.341 253.616C225.341 253.872 225.25 254.091 225.069 254.272C224.888 254.453 224.669 254.544 224.413 254.544ZM225.101 264H223.709V256H225.101V264ZM229.017 264H227.625V252.32H229.017V264ZM232.42 264.176C232.132 264.176 231.887 264.075 231.684 263.872C231.482 263.669 231.38 263.424 231.38 263.136C231.38 262.848 231.482 262.603 231.684 262.4C231.887 262.197 232.132 262.096 232.42 262.096C232.719 262.096 232.964 262.197 233.156 262.4C233.359 262.603 233.46 262.848 233.46 263.136C233.46 263.424 233.359 263.669 233.156 263.872C232.964 264.075 232.719 264.176 232.42 264.176ZM238.95 264.208C237.745 264.208 236.742 263.808 235.942 263.008C235.142 262.197 234.742 261.195 234.742 260C234.742 258.805 235.142 257.808 235.942 257.008C236.742 256.197 237.745 255.792 238.95 255.792C239.74 255.792 240.449 255.984 241.078 256.368C241.708 256.741 242.177 257.248 242.486 257.888L241.318 258.56C241.116 258.133 240.801 257.792 240.374 257.536C239.958 257.28 239.484 257.152 238.95 257.152C238.15 257.152 237.478 257.424 236.934 257.968C236.401 258.523 236.134 259.2 236.134 260C236.134 260.789 236.401 261.461 236.934 262.016C237.478 262.56 238.15 262.832 238.95 262.832C239.484 262.832 239.964 262.709 240.39 262.464C240.817 262.208 241.142 261.867 241.366 261.44L242.55 262.128C242.198 262.768 241.702 263.275 241.062 263.648C240.422 264.021 239.718 264.208 238.95 264.208ZM250.967 262.992C250.157 263.803 249.159 264.208 247.975 264.208C246.791 264.208 245.794 263.803 244.983 262.992C244.173 262.181 243.767 261.184 243.767 260C243.767 258.816 244.173 257.819 244.983 257.008C245.794 256.197 246.791 255.792 247.975 255.792C249.159 255.792 250.157 256.197 250.967 257.008C251.789 257.829 252.199 258.827 252.199 260C252.199 261.173 251.789 262.171 250.967 262.992ZM247.975 262.848C248.775 262.848 249.447 262.576 249.991 262.032C250.535 261.488 250.807 260.811 250.807 260C250.807 259.189 250.535 258.512 249.991 257.968C249.447 257.424 248.775 257.152 247.975 257.152C247.186 257.152 246.519 257.424 245.975 257.968C245.431 258.512 245.159 259.189 245.159 260C245.159 260.811 245.431 261.488 245.975 262.032C246.519 262.576 247.186 262.848 247.975 262.848ZM262.88 255.792C263.787 255.792 264.512 256.085 265.056 256.672C265.611 257.259 265.888 258.043 265.888 259.024V264H264.496V259.072C264.496 258.464 264.336 257.989 264.016 257.648C263.707 257.296 263.28 257.12 262.736 257.12C262.118 257.12 261.632 257.328 261.28 257.744C260.939 258.149 260.768 258.752 260.768 259.552V264H259.376V259.072C259.376 258.464 259.222 257.989 258.912 257.648C258.614 257.296 258.203 257.12 257.68 257.12C257.072 257.12 256.576 257.333 256.192 257.76C255.819 258.176 255.632 258.773 255.632 259.552V264H254.24V256H255.632V257.072C256.176 256.219 256.971 255.792 258.016 255.792C259.094 255.792 259.878 256.245 260.368 257.152C260.923 256.245 261.76 255.792 262.88 255.792Z" fill="#121212"/>
<path d="M50.038 296.3V298.148H43.528V302.915H49.765V304.763H43.528V311H41.575V296.3H50.038ZM61.0761 309.677C60.0121 310.741 58.7031 311.273 57.1491 311.273C55.5951 311.273 54.2861 310.741 53.2221 309.677C52.1581 308.613 51.6261 307.304 51.6261 305.75C51.6261 304.196 52.1581 302.887 53.2221 301.823C54.2861 300.759 55.5951 300.227 57.1491 300.227C58.7031 300.227 60.0121 300.759 61.0761 301.823C62.1541 302.901 62.6931 304.21 62.6931 305.75C62.6931 307.29 62.1541 308.599 61.0761 309.677ZM57.1491 309.488C58.1991 309.488 59.0811 309.131 59.7951 308.417C60.5091 307.703 60.8661 306.814 60.8661 305.75C60.8661 304.686 60.5091 303.797 59.7951 303.083C59.0811 302.369 58.1991 302.012 57.1491 302.012C56.1131 302.012 55.2381 302.369 54.5241 303.083C53.8101 303.797 53.4531 304.686 53.4531 305.75C53.4531 306.814 53.8101 307.703 54.5241 308.417C55.2381 309.131 56.1131 309.488 57.1491 309.488ZM66.6739 311H64.8469V295.67H66.6739V311ZM71.2882 311H69.4612V295.67H71.2882V311ZM82.9375 309.677C81.8735 310.741 80.5645 311.273 79.0105 311.273C77.4565 311.273 76.1475 310.741 75.0835 309.677C74.0195 308.613 73.4875 307.304 73.4875 305.75C73.4875 304.196 74.0195 302.887 75.0835 301.823C76.1475 300.759 77.4565 300.227 79.0105 300.227C80.5645 300.227 81.8735 300.759 82.9375 301.823C84.0155 302.901 84.5545 304.21 84.5545 305.75C84.5545 307.29 84.0155 308.599 82.9375 309.677ZM79.0105 309.488C80.0605 309.488 80.9425 309.131 81.6565 308.417C82.3705 307.703 82.7275 306.814 82.7275 305.75C82.7275 304.686 82.3705 303.797 81.6565 303.083C80.9425 302.369 80.0605 302.012 79.0105 302.012C77.9745 302.012 77.0995 302.369 76.3855 303.083C75.6715 303.797 75.3145 304.686 75.3145 305.75C75.3145 306.814 75.6715 307.703 76.3855 308.417C77.0995 309.131 77.9745 309.488 79.0105 309.488ZM96.3571 308.501L98.6671 300.5H100.578L97.3231 311H95.4541L92.9971 303.23L90.5401 311H88.6711L85.4161 300.5H87.3271L89.6371 308.48L92.1151 300.5H93.8791L96.3571 308.501ZM107.708 306.065V296.3H109.661V305.981C109.661 307.031 109.969 307.857 110.585 308.459C111.215 309.061 112.097 309.362 113.231 309.362C114.365 309.362 115.24 309.061 115.856 308.459C116.486 307.857 116.801 307.031 116.801 305.981V296.3H118.733V306.065C118.733 307.661 118.222 308.928 117.2 309.866C116.178 310.804 114.855 311.273 113.231 311.273C111.593 311.273 110.263 310.804 109.241 309.866C108.219 308.928 107.708 307.661 107.708 306.065ZM123.003 303.335C123.003 304.007 123.696 304.532 125.082 304.91C125.6 305.022 126.034 305.141 126.384 305.267C126.748 305.379 127.14 305.554 127.56 305.792C127.994 306.03 128.323 306.345 128.547 306.737C128.771 307.129 128.883 307.591 128.883 308.123C128.883 309.075 128.512 309.838 127.77 310.412C127.028 310.986 126.09 311.273 124.956 311.273C123.948 311.273 123.073 311.056 122.331 310.622C121.603 310.174 121.085 309.572 120.777 308.816L122.352 307.913C122.52 308.417 122.835 308.816 123.297 309.11C123.759 309.404 124.312 309.551 124.956 309.551C125.586 309.551 126.09 309.432 126.468 309.194C126.846 308.956 127.035 308.599 127.035 308.123C127.035 307.409 126.342 306.891 124.956 306.569C124.494 306.443 124.144 306.345 123.906 306.275C123.668 306.205 123.339 306.079 122.919 305.897C122.513 305.715 122.205 305.526 121.995 305.33C121.785 305.12 121.589 304.847 121.407 304.511C121.239 304.161 121.155 303.776 121.155 303.356C121.155 302.446 121.505 301.697 122.205 301.109C122.919 300.521 123.808 300.227 124.872 300.227C125.726 300.227 126.482 300.423 127.14 300.815C127.812 301.193 128.316 301.725 128.652 302.411L127.119 303.272C126.741 302.376 125.992 301.928 124.872 301.928C124.34 301.928 123.892 302.054 123.528 302.306C123.178 302.558 123.003 302.901 123.003 303.335Z" fill="#808080"/>
<path d="M56.0007 349C56.0007 348.448 56.4484 348 57.0007 348C57.553 348 58.0007 348.448 58.0007 349C58.0007 349.552 57.553 350 57.0007 350C56.4484 350 56.0007 349.552 56.0007 349Z" fill="#121212"/>
<path fill-rule="evenodd" clip-rule="evenodd" d="M52.0007 349.25C49.3773 349.25 47.2507 351.377 47.2507 354C47.2507 356.623 49.3773 358.75 52.0007 358.75C54.624 358.75 56.7507 356.623 56.7507 354C56.7507 351.377 54.624 349.25 52.0007 349.25ZM48.7507 354C48.7507 352.205 50.2057 350.75 52.0007 350.75C53.7956 350.75 55.2507 352.205 55.2507 354C55.2507 355.795 53.7956 357.25 52.0007 357.25C50.2057 357.25 48.7507 355.795 48.7507 354Z" fill="#121212"/>
<path fill-rule="evenodd" clip-rule="evenodd" d="M57.2589 344.833C53.7924 344.446 50.209 344.446 46.7424 344.833C44.7304 345.058 43.1061 346.643 42.8695 348.665C42.455 352.21 42.455 355.79 42.8695 359.335C43.1061 361.357 44.7304 362.942 46.7424 363.167C50.209 363.554 53.7924 363.554 57.2589 363.167C59.271 362.942 60.8953 361.357 61.1319 359.335C61.5464 355.79 61.5464 352.21 61.1319 348.665C60.8953 346.643 59.271 345.058 57.2589 344.833ZM46.909 346.324C50.2649 345.949 53.7365 345.949 57.0923 346.324C58.4224 346.472 59.4879 347.522 59.642 348.84C60.043 352.268 60.043 355.732 59.642 359.16C59.4879 360.478 58.4224 361.528 57.0923 361.676C53.7365 362.051 50.2649 362.051 46.9091 361.676C45.5789 361.528 44.5135 360.478 44.3593 359.16C43.9583 355.732 43.9583 352.268 44.3593 348.84C44.5135 347.522 45.5789 346.472 46.909 346.324Z" fill="#121212"/>
<path fill-rule="evenodd" clip-rule="evenodd" d="M108 344.25C102.615 344.25 98.25 348.615 98.25 354C98.25 359.385 102.615 363.75 108 363.75C113.385 363.75 117.75 359.385 117.75 354C117.75 348.615 113.385 344.25 108 344.25ZM99.75 354C99.75 349.444 103.444 345.75 108 345.75C112.556 345.75 116.25 349.444 116.25 354C116.25 358.556 112.556 362.25 108 362.25C107.143 362.25 106.316 362.119 105.539 361.877C105.961 361.213 106.297 360.498 106.539 359.749L107.055 357.772C107.269 358.076 107.555 358.323 107.888 358.489C108.221 358.655 108.59 358.735 108.961 358.722C111.497 358.722 113.278 356.418 113.278 353.556C113.278 350.807 111.033 348.753 108.154 348.753C104.567 348.753 102.662 351.163 102.662 353.782C102.662 355.005 103.309 356.519 104.348 357.006C104.502 357.077 104.603 357.006 104.627 356.893C104.651 356.78 104.793 356.211 104.858 355.95C104.869 355.908 104.869 355.864 104.858 355.823C104.848 355.782 104.828 355.743 104.799 355.712C104.406 355.159 104.199 354.496 104.205 353.818C104.203 353.331 104.3 352.849 104.49 352.4C104.679 351.952 104.958 351.547 105.309 351.209C105.66 350.872 106.075 350.609 106.531 350.437C106.986 350.265 107.471 350.187 107.958 350.208C108.413 350.181 108.869 350.249 109.297 350.409C109.724 350.568 110.114 350.815 110.441 351.134C110.768 351.452 111.025 351.835 111.195 352.258C111.366 352.682 111.446 353.136 111.431 353.592C111.431 355.836 110.291 357.398 108.819 357.398C108.628 357.412 108.438 357.381 108.262 357.306C108.087 357.231 107.932 357.115 107.81 356.968C107.689 356.821 107.605 356.646 107.566 356.46C107.527 356.273 107.533 356.079 107.584 355.896C107.668 355.545 107.779 355.185 107.888 354.833C108.085 354.195 108.272 353.588 108.272 353.129C108.293 352.98 108.281 352.828 108.237 352.684C108.194 352.539 108.12 352.406 108.02 352.294C107.92 352.181 107.797 352.091 107.659 352.03C107.521 351.969 107.372 351.939 107.222 351.941C106.39 351.941 105.719 352.808 105.719 353.96C105.713 354.367 105.79 354.771 105.945 355.148L104.965 359.304C104.845 360.089 104.845 360.888 104.964 361.674C104.314 361.416 103.704 361.078 103.147 360.672C102.17 359.958 101.353 359.035 100.763 357.959C100.531 357.536 100.337 357.096 100.183 356.645C99.9022 355.814 99.75 354.925 99.75 354Z" fill="#121212"/>
<path fill-rule="evenodd" clip-rule="evenodd" d="M162.488 345.788C163.472 344.803 164.808 344.25 166.2 344.25H168.9C169.314 344.25 169.65 344.586 169.65 345V348.6C169.65 349.014 169.314 349.35 168.9 349.35H166.2C166.16 349.35 166.122 349.366 166.094 349.394C166.066 349.422 166.05 349.46 166.05 349.5V351.45H168.9C169.131 351.45 169.349 351.556 169.491 351.738C169.633 351.92 169.684 352.158 169.628 352.382L168.728 355.982C168.644 356.316 168.344 356.55 168 356.55H166.05V363C166.05 363.414 165.714 363.75 165.3 363.75H161.7C161.286 363.75 160.95 363.414 160.95 363V356.55H159C158.586 356.55 158.25 356.214 158.25 355.8V352.2C158.25 351.786 158.586 351.45 159 351.45H160.95V349.5C160.95 348.108 161.503 346.772 162.488 345.788ZM166.2 345.75C165.205 345.75 164.252 346.145 163.548 346.848C162.845 347.552 162.45 348.505 162.45 349.5V352.2C162.45 352.614 162.114 352.95 161.7 352.95H159.75V355.05H161.7C162.114 355.05 162.45 355.386 162.45 355.8V362.25H164.55V355.8C164.55 355.386 164.886 355.05 165.3 355.05H167.414L167.939 352.95H165.3C164.886 352.95 164.55 352.614 164.55 352.2V349.5C164.55 349.062 164.724 348.643 165.033 348.333C165.343 348.024 165.762 347.85 166.2 347.85H168.15V345.75H166.2Z" fill="#121212"/>
<path fill-rule="evenodd" clip-rule="evenodd" d="M223.022 345.343C223.53 345.256 224.099 345.227 224.635 345.318C225.592 345.48 226.476 345.924 227.174 346.591C227.631 346.602 228.08 346.512 228.477 346.383C228.813 346.275 229.097 346.144 229.296 346.04C229.395 345.989 229.471 345.945 229.521 345.915C229.546 345.9 229.564 345.889 229.575 345.882L229.584 345.876C229.881 345.678 230.276 345.717 230.529 345.968C230.782 346.22 230.823 346.615 230.626 346.913C230.419 347.228 230.13 347.79 229.807 348.42C229.756 348.519 229.705 348.619 229.652 348.721C229.467 349.081 229.277 349.445 229.1 349.757C228.989 349.953 228.87 350.152 228.75 350.324V350.598C228.758 351.603 228.642 352.604 228.408 353.577C228.261 354.189 228.067 354.791 227.826 355.376C227.204 356.893 226.286 358.27 225.125 359.428C223.964 360.586 222.584 361.501 221.066 362.119C219.549 362.737 217.925 363.047 216.287 363.031C213.912 363.033 211.588 362.349 209.593 361.061C209.299 360.871 209.176 360.503 209.295 360.175C209.414 359.846 209.745 359.643 210.092 359.686C210.393 359.723 210.695 359.742 210.998 359.741C212.085 359.737 213.152 359.497 214.126 359.045C213.816 358.904 213.521 358.73 213.244 358.525C212.433 357.923 211.829 357.083 211.517 356.122C211.436 355.872 211.491 355.598 211.663 355.4C211.666 355.396 211.669 355.393 211.672 355.389C211.489 355.226 211.317 355.047 211.159 354.856C210.448 353.994 210.056 352.912 210.05 351.794L210.05 351.791L210.05 351.741C210.05 351.475 210.191 351.229 210.42 351.094C210.478 351.06 210.54 351.034 210.603 351.017C210.265 350.342 210.089 349.596 210.09 348.84C210.09 347.983 210.313 347.141 210.739 346.398C210.862 346.183 211.083 346.043 211.33 346.023C211.576 346.003 211.817 346.106 211.972 346.298C212.935 347.484 214.136 348.454 215.498 349.146C216.198 349.501 216.933 349.779 217.689 349.975C218.112 350.085 218.543 350.17 218.978 350.228C218.959 349.505 219.101 348.782 219.401 348.114C219.841 347.134 220.593 346.328 221.54 345.822C221.942 345.608 222.474 345.437 223.022 345.343ZM211.743 352.891C211.873 353.256 212.066 353.598 212.316 353.901C212.807 354.497 213.489 354.904 214.246 355.055C214.584 355.122 214.832 355.41 214.849 355.753C214.866 356.097 214.647 356.408 214.318 356.508C214.046 356.591 213.767 356.649 213.484 356.681C213.671 356.921 213.89 357.137 214.138 357.32C214.699 357.736 215.376 357.967 216.075 357.981C216.391 357.987 216.67 358.191 216.771 358.492C216.872 358.792 216.773 359.124 216.524 359.32C215.475 360.145 214.261 360.721 212.976 361.015C214.041 361.356 215.159 361.532 216.289 361.531L216.298 361.531C217.738 361.545 219.167 361.273 220.5 360.73C221.834 360.187 223.046 359.383 224.066 358.366C225.085 357.349 225.892 356.139 226.439 354.807C226.65 354.292 226.82 353.764 226.95 353.226C227.156 352.37 227.257 351.491 227.25 350.606L227.25 350.601V350.071C227.25 349.889 227.316 349.713 227.436 349.576C227.505 349.497 227.626 349.315 227.795 349.017C227.956 348.734 228.134 348.394 228.319 348.035C228.33 348.013 228.341 347.991 228.352 347.969C227.873 348.073 227.329 348.128 226.759 348.066C226.579 348.047 226.412 347.962 226.289 347.829C225.786 347.284 225.116 346.921 224.385 346.797C224.06 346.742 223.668 346.755 223.275 346.822C222.848 346.895 222.476 347.023 222.247 347.145C221.593 347.495 221.073 348.052 220.77 348.728C220.466 349.405 220.395 350.164 220.569 350.885C220.625 351.115 220.568 351.357 220.417 351.539C220.266 351.721 220.038 351.822 219.802 351.81C218.959 351.767 218.124 351.638 217.311 351.427C216.452 351.203 215.616 350.888 214.819 350.483C213.646 349.888 212.578 349.111 211.654 348.183C211.611 348.399 211.59 348.619 211.59 348.84L211.59 348.842C211.589 349.393 211.724 349.935 211.983 350.421C212.243 350.907 212.618 351.321 213.076 351.627C213.354 351.812 213.476 352.159 213.375 352.478C213.274 352.796 212.974 353.009 212.64 353C212.337 352.992 212.037 352.955 211.743 352.891Z" fill="#121212"/>
<path fill-rule="evenodd" clip-rule="evenodd" d="M269.787 356.02C269.831 356.034 269.875 356.045 269.919 356.051C269.967 356.164 270.029 356.311 270.102 356.482C270.279 356.899 270.517 357.464 270.764 358.054C271.266 359.255 271.773 360.494 271.884 360.849C272.023 361.287 272.169 361.585 272.329 361.788C272.412 361.893 272.507 361.985 272.619 362.055C272.676 362.09 272.735 362.119 272.797 362.14C272.8 362.141 272.803 362.142 272.805 362.143C273.125 362.264 273.417 362.213 273.6 362.152C273.698 362.119 273.777 362.079 273.833 362.047C273.861 362.03 273.885 362.015 273.905 362.002L273.909 361.999L276.735 360.237L280 362.739C280.048 362.776 280.101 362.807 280.156 362.832C280.548 363.003 280.928 363.062 281.286 363.014C281.642 362.965 281.925 362.815 282.136 362.646C282.343 362.481 282.482 362.296 282.57 362.159C282.614 362.089 282.647 362.027 282.671 361.979C282.683 361.955 282.692 361.935 282.7 361.918L282.709 361.896L282.713 361.888L282.714 361.884L282.715 361.882L282.716 361.881C282.733 361.838 282.746 361.794 282.755 361.748L285.735 346.723C285.745 346.675 285.749 346.626 285.749 346.577C285.749 346.137 285.584 345.718 285.194 345.465C284.861 345.248 284.489 345.238 284.255 345.256C284.002 345.275 283.768 345.338 283.611 345.388C283.53 345.414 283.461 345.439 283.412 345.458C283.387 345.467 283.367 345.476 283.352 345.482L283.34 345.487L266.627 352.043L266.624 352.044C266.614 352.048 266.6 352.053 266.584 352.059C266.551 352.072 266.508 352.09 266.457 352.113C266.359 352.157 266.22 352.227 266.078 352.325C265.851 352.48 265.328 352.906 265.416 353.61C265.486 354.171 265.871 354.515 266.105 354.681C266.233 354.772 266.356 354.837 266.445 354.879C266.486 354.899 266.572 354.934 266.609 354.949L266.618 354.953L269.787 356.02ZM283.925 346.868L283.923 346.869C283.915 346.872 283.906 346.876 283.898 346.879L267.164 353.444C267.155 353.447 267.146 353.45 267.137 353.454L267.128 353.457C267.117 353.461 267.099 353.469 267.077 353.479C267.064 353.485 267.05 353.491 267.037 353.498C267.055 353.508 267.073 353.518 267.089 353.525C267.105 353.532 267.116 353.537 267.123 353.54L270.265 354.598C270.323 354.617 270.377 354.643 270.426 354.674L280.803 348.599L280.812 348.594C280.82 348.589 280.83 348.584 280.842 348.577C280.865 348.563 280.898 348.546 280.936 348.526C281.008 348.489 281.124 348.435 281.253 348.395C281.344 348.367 281.61 348.288 281.898 348.381C282.076 348.438 282.26 348.56 282.38 348.768C282.439 348.871 282.471 348.975 282.486 349.07C282.527 349.219 282.521 349.367 282.489 349.494C282.42 349.769 282.227 349.983 282.052 350.147C281.901 350.287 279.956 352.163 278.037 354.015C277.08 354.938 276.133 355.852 275.424 356.536L274.959 356.985L280.831 361.487C280.966 361.535 281.046 361.532 281.082 361.527C281.126 361.521 281.162 361.505 281.199 361.475C281.24 361.442 281.276 361.398 281.303 361.356L281.304 361.354L284.194 346.781C284.151 346.791 284.108 346.804 284.066 346.817C284.019 346.832 283.98 346.846 283.954 346.856C283.941 346.861 283.932 346.865 283.927 346.867L283.925 346.868ZM275.464 359.262L274.292 358.364L274.009 360.169L275.464 359.262ZM273.218 356.581L274.383 355.457C275.091 354.773 276.038 353.859 276.995 352.935L277.968 351.997L271.448 355.814L271.483 355.896C271.66 356.315 271.9 356.883 272.148 357.475C272.333 357.918 272.526 358.384 272.703 358.816L272.986 357.016C273.013 356.842 273.098 356.692 273.218 356.581Z" fill="#121212"/>
</svg>
